{"title":"Truth.2015.720p.BRRip.XviD.AC3-RARBG","uid":13423258,"size":2651783763,"categoryP":"video","categoryS":"movies","magnet":"?xt=urn:btih:2dda6cefa60b431b6ee5e672e48af198f5c6e32a&amp;dn=Truth.2015.720p.BRRip.XviD.AC3-RARBG&amp;tr=udp%3A%2F%2Ftracker.leechers-paradise.org%3A6969&amp;tr=udp%3A%2F%2Fzer0day.ch%3A1337&amp;tr=udp%3A%2F%2Fopen.demonii.com%3A1337&amp;tr=udp%3A%2F%2Ftracker.coppersurfer.tk%3A6969&amp;tr=udp%3A%2F%2Fexodus.desync.com%3A6969","seeders":0,"leechers":1,"uploader":"noriegaRJ","files":6,"time":1454570058,"description":"Title: Truth\r\n\r\nRelease: Truth.2015.720p.BRRip.XviD.AC3-RARBG\r\n\r\n\r\nIMDB Link:                                                          \nhttp://www.imdb.com/title/tt3859076/\r\n\r\n\r\nPlot: The story of The Killian Documents controversy (a.k.a. &quot;Rathergate&quot;) in the days leading up to the 2004 presidential election. When veteran newscaster Dan Rather and CBS News head Mary Mapes choose to air a segment on 60 Minutes exposing how President Bush avoided being drafted to Vietnam through his father's political advantages, the resulting fallout ultimately costs them their jobs and reputations.\r\n\r\n\r\n\r\nGeneral\r\nComplete name                            : Truth.2015.720p.BRRip.XviD.AC3-RARBG\r\nFormat                                   : AVI\r\nFormat/Info                              : Audio Video Interleave\r\nFormat profile                           : OpenDML\r\nFile size                                : 2.42 GiB\r\nDuration                                 : 2h 5mn\r\nOverall bit rate                         : 2 769 Kbps\r\nMovie name                               : RARBG.COM - Truth.2015.720p.BRRip.XviD.AC3-RARBG\r\nWriting application                      : Lavf56.40.101\r\nWriting library                          : VirtualDub build 35491/release\r\nComment                                  : RARBG.COM - Truth.2015.720p.BRRip.XviD.AC3-RARBG\r\n\r\nVideo\r\nID                                       : 0\r\nFormat                                   : MPEG-4 Visual\r\nFormat profile                           :   \r\nFormat settings, BVOP                    : No\r\nFormat settings, QPel                    : No\r\nFormat settings, GMC                     : No warppoints\r\nFormat settings, Matrix                  : Default (H.263)\r\nCodec ID                                 : XVID\r\nCodec ID/Hint                            : XviD\r\nDuration                                 : 2h 5mn\r\nBit rate                                 : 2 117 Kbps\r\nWidth                                    : 1 280 pixels\r\nHeight                                   : 536 pixels\r\nDisplay aspect ratio                     : 2.40:1\r\nFrame rate                               : 23.976 fps\r\nColor space                              : YUV\r\nChroma subsampling                       : 4:2:0\r\nBit depth                                : 8 bits\r\nScan type                                : Progressive\r\nCompression mode                         : Lossy\r\nBits/(Pixel*Frame)                       : 0.129\r\nStream size                              : 1.85 GiB (76%)\r\nWriting library                          : Lavc56.60.100\r\n\r\nAudio\r\nID                                       : 1\r\nFormat                                   : AC-3\r\nFormat/Info                              : Audio Coding 3\r\nMode extension                           : CM (complete main)\r\nFormat settings, Endianness              : Big\r\nCodec ID                                 : 2000\r\nDuration                                 : 2h 5mn\r\nBit rate mode                            : Constant\r\nBit rate                                 : 640 Kbps\r\nChannel count                            : 6 channels\r\nChannel positions                        : Front: L C R, Side: L R, LFE\r\nSampling rate                            : 48.0 KHz\r\nBit depth                                : 16 bits\r\nCompression mode                         : Lossy\r\nStream size                              : 573 MiB (23%)\r\nAlignment                                : Aligned on interleaves\r\nInterleave, duration                     : 42 ms (1.00 video frame)\r\nInterleave, preload duration             : 512 ms\r\n\r\n\r\n\r\nThanks to those helping me seed. Leechers remember, the community depends on you. If nobody shares, the freebies go away. Remember, the only reason you can download this free movie is because others are generous enough to keep sharing it with you. If nobody shares, everybody loses, so even if its for an extra hour or two after you get it, remember, others want to see it too, and they can't without you.\r\n\r\n\r\nSEE MY OTHERS UPLOADS:                                                                                  \nhttp://thepiratebay.se/user/noriegaRJ\r\n\r\nAND SEE THIS ANOTHERS UPLOADS FROM &quot;HORiZON-ArtSubs&quot;:                                  \nhttp://thepiratebay.se/user/artsubs                                  \nhttp://thepiratebay.se/user/lletaif","torrent":{"xt":"urn:btih:2dda6cefa60b431b6ee5e672e48af198f5c6e32a","amp;dn":"Truth.2015.720p.BRRip.XviD.AC3-RARBG","amp;tr":["udp%3A%2F%2Ftracker.leechers-paradise.org%3A6969","udp%3A%2F%2Fzer0day.ch%3A1337","udp%3A%2F%2Fopen.demonii.com%3A1337","udp%3A%2F%2Ftracker.coppersurfer.tk%3A6969","udp%3A%2F%2Fexodus.desync.com%3A6969"],"infoHash":"2dda6cefa60b431b6ee5e672e48af198f5c6e32a","infoHashBuffer":{"type":"Buffer","data":[45,218,108,239,166,11,67,27,110,229,230,114,228,138,241,152,245,198,227,42]},"announce":[],"urlList":[]}}